<svg xmlns="http://www.w3.org/2000/svg" viewBox="1 3 20 14">
  <path d="M 2 3 L 20 3 C 20.3333 3.3333 20.774 3.596 21 4 L 21 16 C 20.6667 16.3333 20.3333 16.6667 20 17 L 2 17 C 1.6667 16.6667 1.3333 16.3333 1 16 L 1 4 C 1.3333 3.6667 1.6667 3.3333 2 3 M 3.05 4.183 L 10.034 11.049 C 10.738 11.46 11.442 11.578 12.029 11.108 L 18.954 4.183 Z M 2.228 5.005 L 2.228 15.099 L 7.275 10.11 Z M 19.835 5.005 L 15.022 9.993 L 19.893 15.158 Z M 3.05 15.979 L 19.248 15.979 C 17.4873 14.2967 15.7267 12.6143 13.966 10.932 C 11.559 13.632 9.858 12.634 8.156 10.991 Z" fill="#f7f7ff"/>
</svg>